<svg width="1211" height="144" viewBox="0 0 1211 144" fill="none" xmlns="http://www.w3.org/2000/svg">
<g clip-path="url(#clip0_53_1404)">
<path d="M200.648 92.8924C200.648 95.7916 198.298 98.1422 195.399 98.1422H191.81V94.0436H191.682C191.298 94.5984 190.786 95.1748 190.145 95.7722C189.547 96.3275 188.822 96.8399 187.968 97.3097C187.157 97.779 186.239 98.1632 185.214 98.4625C184.232 98.7611 183.207 98.9102 182.14 98.9102C179.835 98.9102 177.743 98.526 175.864 97.7575C173.985 96.9464 172.363 95.8362 170.997 94.4273C169.673 92.9758 168.649 91.2682 167.923 89.3045C167.197 87.3401 166.834 85.1842 166.834 82.8362C166.834 80.6588 167.154 78.5879 167.795 76.6236C168.478 74.6173 169.417 72.8451 170.613 71.3081C171.851 69.7714 173.345 68.5546 175.096 67.658C176.846 66.7187 178.831 66.2491 181.051 66.2491C183.058 66.2491 184.915 66.5693 186.623 67.2097C188.374 67.8074 189.804 68.8534 190.914 70.348H191.042V54.9758C191.042 52.0767 193.392 49.7265 196.291 49.7265H200.648V92.8924ZM191.81 82.5795C191.81 80.2315 191.128 78.3318 189.761 76.8798C188.438 75.4283 186.559 74.7024 184.125 74.7024C181.692 74.7024 179.792 75.4283 178.426 76.8798C177.102 78.3318 176.44 80.2315 176.44 82.5795C176.44 84.9281 177.102 86.8278 178.426 88.2793C179.792 89.7312 181.692 90.4572 184.125 90.4572C186.559 90.4572 188.438 89.7312 189.761 88.2793C191.128 86.8278 191.81 84.9281 191.81 82.5795Z" fill="#DC244C"/>
<path d="M206.863 72.2667C206.863 69.3678 209.214 67.0176 212.113 67.0176H216.47V72.0126H216.598C217.623 70.0916 218.839 68.6613 220.248 67.722C221.657 66.74 223.429 66.2491 225.564 66.2491C226.119 66.2491 226.673 66.2704 227.229 66.3131C227.784 66.3558 228.296 66.4412 228.766 66.5693V75.343C228.082 75.1294 227.399 74.9798 226.717 74.8942C226.076 74.7661 225.393 74.7021 224.667 74.7021C222.831 74.7021 221.38 74.9583 220.312 75.4706C219.245 75.9829 218.412 76.7089 217.815 77.648C217.259 78.5446 216.897 79.6333 216.726 80.9142C216.555 82.1955 216.47 83.6039 216.47 85.1409V92.8921C216.47 95.7913 214.12 98.142 211.22 98.142H206.863V72.2667Z" fill="#DC244C"/>
<path d="M252.066 94.2362H251.938C250.87 95.9013 249.44 97.0966 247.647 97.8226C245.897 98.548 244.039 98.9108 242.075 98.9108C240.624 98.9108 239.215 98.6976 237.848 98.2709C236.525 97.8866 235.351 97.2887 234.326 96.4777C233.301 95.6661 232.49 94.663 231.892 93.4672C231.295 92.2719 230.996 90.8845 230.996 89.305C230.996 87.5118 231.316 85.9958 231.956 84.758C232.64 83.5197 233.536 82.495 234.646 81.684C235.799 80.8724 237.101 80.2535 238.553 79.8268C240.005 79.3569 241.499 79.0152 243.036 78.8016C244.616 78.5884 246.174 78.4604 247.711 78.4173C249.291 78.3748 250.742 78.3538 252.066 78.3538C252.066 76.6457 251.447 75.3008 250.208 74.3186C249.013 73.294 247.583 72.7816 245.918 72.7816C244.338 72.7816 242.887 73.1234 241.563 73.8063C240.282 74.4472 239.129 75.3438 238.104 76.4961L232.981 71.2446C234.774 69.5798 236.867 68.3416 239.257 67.5304C241.648 66.6765 244.124 66.2496 246.686 66.2496C249.504 66.2496 251.809 66.6125 253.603 67.3383C255.439 68.0214 256.89 69.0461 257.957 70.4121C259.068 71.7785 259.836 73.4651 260.263 75.4714C260.69 77.4357 260.903 79.7197 260.903 82.3239V92.8934C260.903 95.7921 258.553 98.1428 255.654 98.1428H252.066V94.2362ZM249.696 84.5013C248.971 84.5013 248.052 84.5444 246.942 84.6294C245.875 84.6724 244.829 84.843 243.804 85.1417C242.823 85.4409 241.968 85.8892 241.243 86.4866C240.56 87.0845 240.218 87.9171 240.218 88.9848C240.218 90.1375 240.709 90.9911 241.691 91.5459C242.673 92.1013 243.698 92.3785 244.765 92.3785C245.704 92.3785 246.601 92.2504 247.455 91.9942C248.351 91.7381 249.141 91.3753 249.824 90.9055C250.508 90.4362 251.041 89.8383 251.425 89.1123C251.852 88.3869 252.066 87.5328 252.066 86.5512V84.5013H249.696Z" fill="#DC244C"/>
<path d="M267.572 72.2667C267.572 69.3678 269.922 67.0176 272.821 67.0176H276.794V71.2441H276.922C277.221 70.6467 277.648 70.0489 278.203 69.4512C278.758 68.8534 279.42 68.3198 280.188 67.8501C280.957 67.3805 281.832 66.9962 282.814 66.6974C283.796 66.3985 284.863 66.2491 286.016 66.2491C288.45 66.2491 290.414 66.6333 291.908 67.4018C293.402 68.1277 294.555 69.1523 295.366 70.4756C296.22 71.7995 296.796 73.3575 297.096 75.1507C297.394 76.9438 297.544 78.8866 297.544 80.979V92.8924C297.544 95.7916 295.194 98.1423 292.294 98.1423H287.938V82.8997C287.938 82.0031 287.894 81.0856 287.809 80.1459C287.766 79.1643 287.574 78.2677 287.233 77.4567C286.934 76.6451 286.443 75.9832 285.76 75.4709C285.12 74.9585 284.18 74.7024 282.942 74.7024C281.704 74.7024 280.701 74.9375 279.932 75.4068C279.164 75.8341 278.566 76.4315 278.139 77.2C277.755 77.926 277.499 78.7585 277.371 79.6976C277.243 80.6373 277.178 81.6189 277.178 82.6436V92.8924C277.178 95.7916 274.828 98.1423 271.929 98.1423H267.572V72.2667Z" fill="#DC244C"/>
<path d="M326.186 69.453C326.186 72.352 323.836 74.7021 320.937 74.7021H317.733V85.0774C317.733 85.931 317.776 86.721 317.861 87.4465C317.946 88.1299 318.139 88.7273 318.437 89.2396C318.736 89.752 319.185 90.1577 319.782 90.4569C320.423 90.7131 321.255 90.8407 322.28 90.8407C322.792 90.8407 323.454 90.7982 324.265 90.7126C325.119 90.5845 325.76 90.3289 326.186 89.9446V94.5241C326.186 96.5793 324.899 98.4911 322.856 98.7178C321.703 98.8459 320.572 98.91 319.462 98.91C317.84 98.91 316.345 98.7394 314.979 98.3976C313.613 98.0564 312.417 97.5226 311.393 96.7971C310.368 96.0286 309.557 95.0465 308.959 93.8507C308.404 92.6554 308.126 91.2039 308.126 89.4963V74.7021H301.978V72.2664C301.978 69.3675 304.329 67.0173 307.228 67.0173H308.126V63.0446C308.126 60.1455 310.477 57.7953 313.376 57.7953H317.733V67.0173H326.186V69.453Z" fill="#DC244C"/>
<path fill-rule="evenodd" clip-rule="evenodd" d="M143.483 105.538L141.888 61.5569L138.999 49.9617L158.282 52.0031V105.205L146.503 112.004L143.483 105.538Z" fill="#24386C"/>
<path fill-rule="evenodd" clip-rule="evenodd" d="M158.281 52L146.501 58.8031L122.193 53.4709L93.7396 65.0556L88.9991 52L106.317 42L123.64 32L140.958 42L158.281 52Z" fill="#7589BE"/>
<path fill-rule="evenodd" clip-rule="evenodd" d="M89 52L100.78 58.8031L107.608 79.1107L130.664 97.558L123.641 112L106.318 101.999L89 91.9995V52Z" fill="#B2BFE8"/>
<path fill-rule="evenodd" clip-rule="evenodd" d="M131.45 86.8871L123.641 98.4V112.001L134.722 105.607L140.432 97.0814" fill="#24386C"/>
<path fill-rule="evenodd" clip-rule="evenodd" d="M123.646 84.8031L112.56 65.6089L114.947 59.2472L124.025 54.846L134.722 65.6092L123.646 84.8031Z" fill="#7589BE"/>
<path fill-rule="evenodd" clip-rule="evenodd" d="M112.56 65.6073L123.641 72.001V84.7989L113.392 85.2399L107.193 77.3239L112.56 65.6073Z" fill="#B2BFE8"/>
<path fill-rule="evenodd" clip-rule="evenodd" d="M123.641 72L134.722 65.6068L142.264 78.1643L133.137 85.705L123.641 84.7983V72Z" fill="#24386C"/>
<path fill-rule="evenodd" clip-rule="evenodd" d="M134.722 105.606L146.502 112.001V58.8037L135.069 52.2052L123.641 45.6068L112.208 52.2052L100.78 58.8037V85.2021L112.208 91.8005L123.641 98.3995L134.722 92V105.606ZM134.722 78.3989L123.641 84.7979L112.56 78.3989V65.6063L123.641 59.2073L134.722 65.6063V78.3989Z" fill="#DC244C"/>
<path d="M123.646 98.4042V84.8011L112.622 78.4567V92.0373L123.646 98.4042Z" fill="url(#paint0_linear_53_1404)"/>
</g>
<g clip-path="url(#clip1_53_1404)">
<path d="M632.831 92.892C632.831 95.7911 630.481 98.1413 627.582 98.1413H623.994V94.0426H623.865C623.481 94.5977 622.969 95.174 622.328 95.7717C621.731 96.3268 621.005 96.8391 620.151 97.3087C619.34 97.7784 618.422 98.1626 617.397 98.4615C616.415 98.7603 615.391 98.9098 614.323 98.9098C612.018 98.9098 609.926 98.5255 608.047 97.757C606.169 96.9458 604.546 95.8358 603.18 94.4269C601.857 92.9753 600.832 91.2675 600.106 89.3036C599.38 87.3396 599.017 85.1836 599.017 82.8354C599.017 80.658 599.338 78.5873 599.978 76.6234C600.661 74.6168 601.6 72.845 602.796 71.308C604.034 69.771 605.528 68.5542 607.279 67.6576C609.029 66.7183 611.015 66.2487 613.235 66.2487C615.241 66.2487 617.098 66.5689 618.806 67.2093C620.557 67.807 621.987 68.8531 623.097 70.3474H623.225V54.9753C623.225 52.0762 625.575 49.7261 628.474 49.7261H632.831V92.892ZM623.994 82.5792C623.994 80.2311 623.31 78.3312 621.944 76.8796C620.621 75.428 618.742 74.7022 616.309 74.7022C613.875 74.7022 611.975 75.428 610.609 76.8796C609.285 78.3312 608.624 80.2311 608.624 82.5792C608.624 84.9274 609.285 86.8273 610.609 88.2789C611.975 89.7305 613.875 90.4563 616.309 90.4563C618.742 90.4563 620.621 89.7305 621.944 88.2789C623.31 86.8273 623.994 84.9274 623.994 82.5792Z" fill="#DC244C"/>
<path d="M639.049 72.2665C639.049 69.3674 641.4 67.0172 644.299 67.0172H648.656V72.0124H648.784C649.808 70.0912 651.025 68.6609 652.434 67.7217C653.843 66.7397 655.615 66.2487 657.749 66.2487C658.305 66.2487 658.86 66.2701 659.415 66.3127C659.97 66.3554 660.482 66.4408 660.952 66.5689V75.3426C660.268 75.1291 659.585 74.9797 658.902 74.8943C658.262 74.7662 657.579 74.7022 656.853 74.7022C655.017 74.7022 653.565 74.9583 652.498 75.4707C651.431 75.983 650.598 76.7088 650 77.6481C649.445 78.5446 649.083 79.6333 648.912 80.9142C648.741 82.195 648.656 83.6039 648.656 85.1409V92.892C648.656 95.7911 646.305 98.1413 643.406 98.1413H639.049V72.2665Z" fill="#DC244C"/>
<path d="M684.252 94.2348H684.124C683.056 95.8998 681.626 97.0953 679.833 97.8211C678.083 98.5469 676.225 98.9098 674.261 98.9098C672.81 98.9098 671.401 98.6963 670.035 98.2694C668.711 97.8851 667.537 97.2874 666.512 96.4762C665.488 95.665 664.677 94.6617 664.079 93.4663C663.481 92.2708 663.182 90.8833 663.182 89.3036C663.182 87.5104 663.502 85.9948 664.143 84.7566C664.826 83.5185 665.723 82.4939 666.833 81.6827C667.985 80.8715 669.288 80.2524 670.739 79.8255C672.191 79.3558 673.685 79.0143 675.222 78.8008C676.802 78.5873 678.36 78.4592 679.897 78.4166C681.477 78.3739 682.928 78.3525 684.252 78.3525C684.252 76.6447 683.633 75.2999 682.395 74.3179C681.199 73.2933 679.769 72.7809 678.104 72.7809C676.524 72.7809 675.073 73.1225 673.749 73.8056C672.468 74.446 671.316 75.3426 670.291 76.4953L665.168 71.2439C666.961 69.5789 669.053 68.3407 671.444 67.5295C673.834 66.6756 676.311 66.2487 678.872 66.2487C681.69 66.2487 683.996 66.6116 685.789 67.3374C687.625 68.0205 689.076 69.0452 690.144 70.4114C691.254 71.7776 692.022 73.464 692.449 75.4707C692.876 77.4346 693.09 79.7187 693.09 82.3231V92.892C693.09 95.7911 690.739 98.1413 687.84 98.1413H684.252V94.2348ZM681.882 84.5005C681.157 84.5005 680.239 84.5432 679.129 84.6286C678.061 84.6713 677.015 84.842 675.991 85.1409C675.009 85.4398 674.155 85.888 673.429 86.4858C672.746 87.0835 672.404 87.916 672.404 88.9834C672.404 90.1361 672.895 90.99 673.877 91.545C674.859 92.1 675.884 92.3776 676.951 92.3776C677.89 92.3776 678.787 92.2495 679.641 91.9933C680.537 91.7371 681.327 91.3742 682.01 90.9046C682.694 90.435 683.227 89.8372 683.611 89.1115C684.038 88.3856 684.252 87.5318 684.252 86.5498V84.5005H681.882Z" fill="#DC244C"/>
<path d="M699.757 72.2665C699.757 69.3674 702.107 67.0172 705.006 67.0172H708.979V71.2439H709.107C709.406 70.6462 709.833 70.0485 710.388 69.4508C710.943 68.8531 711.605 68.3194 712.373 67.8497C713.142 67.3801 714.017 66.9959 714.999 66.697C715.981 66.3981 717.048 66.2487 718.201 66.2487C720.634 66.2487 722.598 66.633 724.093 67.4015C725.587 68.1273 726.74 69.1519 727.551 70.4754C728.405 71.799 728.981 73.3573 729.28 75.1504C729.579 76.9436 729.728 78.8862 729.728 80.9782V92.892C729.728 95.7911 727.378 98.1413 724.479 98.1413H720.122V82.8994C720.122 82.0029 720.079 81.0849 719.994 80.1457C719.951 79.1637 719.759 78.2671 719.418 77.4559C719.119 76.6447 718.628 75.983 717.945 75.4707C717.304 74.9583 716.365 74.7022 715.127 74.7022C713.889 74.7022 712.885 74.937 712.117 75.4066C711.348 75.8336 710.751 76.4313 710.324 77.1998C709.939 77.9256 709.683 78.7581 709.555 79.6974C709.427 80.6367 709.363 81.6186 709.363 82.6433V92.892C709.363 95.7911 707.013 98.1413 704.114 98.1413H699.757V72.2665Z" fill="#DC244C"/>
<path d="M758.369 69.4529C758.369 72.352 756.018 74.7022 753.119 74.7022H749.915V85.0769C749.915 85.9307 749.958 86.7206 750.043 87.4464C750.129 88.1295 750.321 88.7272 750.62 89.2395C750.919 89.7519 751.367 90.1575 751.965 90.4563C752.605 90.7125 753.438 90.8406 754.462 90.8406C754.975 90.8406 755.636 90.7979 756.447 90.7125C757.301 90.5844 757.942 90.3282 758.369 89.944V94.5236C758.369 96.5789 757.081 98.4907 755.039 98.7176C753.886 98.8457 752.754 98.9098 751.644 98.9098C750.022 98.9098 748.528 98.739 747.161 98.3974C745.795 98.0559 744.6 97.5222 743.575 96.7964C742.55 96.0279 741.739 95.0459 741.142 93.8505C740.587 92.6551 740.309 91.2035 740.309 89.4957V74.7022H734.161V72.2665C734.161 69.3674 736.511 67.0172 739.41 67.0172H740.309V63.0445C740.309 60.1454 742.659 57.7953 745.558 57.7953H749.915V67.0172H758.369V69.4529Z" fill="#DC244C"/>
<path fill-rule="evenodd" clip-rule="evenodd" d="M555.827 32L538.504 42L521.186 51.9999V91.9997L538.504 102L555.827 112L566.908 105.606L578.688 112L590.467 105.202V52.0001L573.145 42.0001L555.827 32Z" fill="#201D1D"/>
<path fill-rule="evenodd" clip-rule="evenodd" d="M578.688 85.2016V58.8036L590.467 52.0005V105.202L578.688 112V85.2016Z" fill="#7D8CB5"/>
<path fill-rule="evenodd" clip-rule="evenodd" d="M590.467 51.9999L578.688 58.803L567.255 52.2045L555.827 45.6064L544.394 52.2045L532.966 58.803L521.187 51.9999L538.504 42L555.827 32L573.145 42L590.467 51.9999Z" fill="#B2BFE8"/>
<path fill-rule="evenodd" clip-rule="evenodd" d="M521.186 51.9999L532.966 58.803V85.201L544.394 91.7995L555.827 98.398V111.999L538.504 101.999L521.186 91.999V51.9992" fill="#D9E2FF"/>
<path fill-rule="evenodd" clip-rule="evenodd" d="M566.908 91.9997L555.827 98.3988V112L566.908 105.606V91.9997Z" fill="#7D8CB5"/>
<path fill-rule="evenodd" clip-rule="evenodd" d="M555.827 71.9998L544.745 65.6063L555.827 59.2073L566.908 65.6063L555.827 71.9998Z" fill="#B2BFE8"/>
<path fill-rule="evenodd" clip-rule="evenodd" d="M544.745 65.6073L555.827 72.0007V84.7985L544.745 78.3998V65.6073Z" fill="#D9E2FF"/>
<path fill-rule="evenodd" clip-rule="evenodd" d="M555.827 71.9998L566.908 65.6063V78.3989L555.827 84.7975V71.9998Z" fill="#7D8CB5"/>
<path fill-rule="evenodd" clip-rule="evenodd" d="M566.908 105.605L578.688 111.999V58.803L567.255 52.2045L555.827 45.6064L544.394 52.2045L532.966 58.803V85.2011L544.394 91.7995L555.827 98.398L566.908 91.999V105.605ZM566.908 78.3979L555.827 84.7966L544.745 78.3979V65.6054L555.827 59.2064L566.908 65.6054V78.3979Z" fill="#DC244C"/>
<path d="M555.832 98.4042V84.801L544.808 78.4567V92.0373L555.832 98.4042Z" fill="url(#paint1_linear_53_1404)"/>
</g>
<defs>
<linearGradient id="paint0_linear_53_1404" x1="121.613" y1="87.4016" x2="110.628" y2="87.4016" gradientUnits="userSpaceOnUse">
<stop stop-color="#FF3364"/>
<stop offset="1" stop-color="#C91540" stop-opacity="0"/>
</linearGradient>
<linearGradient id="paint1_linear_53_1404" x1="553.799" y1="87.4016" x2="542.815" y2="87.4016" gradientUnits="userSpaceOnUse">
<stop stop-color="#FF3364"/>
<stop offset="1" stop-color="#C91540" stop-opacity="0"/>
</linearGradient>
<clipPath id="clip0_53_1404">
<rect width="237.186" height="80" fill="white" transform="translate(89 32)"/>
</clipPath>
<clipPath id="clip1_53_1404">
<rect width="237.186" height="80" fill="white" transform="translate(521.186 32)"/>
</clipPath>
</defs>
</svg>
