<svg width="504" height="160" viewBox="0 0 504 160" fill="none" xmlns="http://www.w3.org/2000/svg">
<rect x="0.5" y="0.5" width="503" height="159" fill="#F2F6FF"/>
<rect x="81.5" y="65.5" width="91" height="28" rx="14" fill="white"/>
<path d="M102 78.1647C102 78.7775 102.121 79.3844 102.355 79.9506C102.59 80.5168 102.933 81.0312 103.367 81.4645C103.8 81.8979 104.315 82.2416 104.881 82.4762C105.447 82.7107 106.054 82.8314 106.667 82.8314C107.28 82.8314 107.886 82.7107 108.453 82.4762C109.019 82.2416 109.533 81.8979 109.966 81.4645C110.4 81.0312 110.744 80.5168 110.978 79.9506C111.213 79.3844 111.333 78.7775 111.333 78.1647C111.333 77.5519 111.213 76.945 110.978 76.3789C110.744 75.8127 110.4 75.2982 109.966 74.8649C109.533 74.4315 109.019 74.0878 108.453 73.8533C107.886 73.6188 107.28 73.498 106.667 73.498C106.054 73.498 105.447 73.6188 104.881 73.8533C104.315 74.0878 103.8 74.4315 103.367 74.8649C102.933 75.2982 102.59 75.8127 102.355 76.3789C102.121 76.945 102 77.5519 102 78.1647Z" stroke="#102252" stroke-width="1.33333" stroke-linecap="round" stroke-linejoin="round"/>
<path d="M114 85.498L110 81.498" stroke="#102252" stroke-width="1.33333" stroke-linecap="round" stroke-linejoin="round"/>
<path d="M124.833 74.0469V84H123.534V74.0469H124.833ZM128.032 74.0469V75.127H120.342V74.0469H128.032ZM135.832 82.9268V84H130.562V82.9268H135.832ZM130.828 74.0469V84H129.509V74.0469H130.828ZM135.135 78.3262V79.3994H130.562V78.3262H135.135ZM135.764 74.0469V75.127H130.562V74.0469H135.764ZM138.32 74.0469L140.713 77.8613L143.105 74.0469H144.644L141.499 78.9756L144.719 84H143.167L140.713 80.1104L138.259 84H136.707L139.927 78.9756L136.782 74.0469H138.32ZM149.921 74.0469V84H148.622V74.0469H149.921ZM153.12 74.0469V75.127H145.43V74.0469H153.12Z" fill="#102252"/>
<rect x="81.5" y="65.5" width="91" height="28" rx="14" stroke="#AEBDE6"/>
<circle opacity="0.8" cx="127" cy="29" r="5" fill="#DC244C"/>
<path d="M129.22 43C129.496 43 129.691 42.6618 129.553 42.4226L127.333 38.5774C127.195 38.3382 126.805 38.3382 126.667 38.5774L124.447 42.4226C124.309 42.6618 124.504 43 124.78 43H129.22ZM126.5 40.875C126.5 41.1511 126.724 41.375 127 41.375C127.276 41.375 127.5 41.1511 127.5 40.875H126.5ZM127.5 46.625C127.5 46.3489 127.276 46.125 127 46.125C126.724 46.125 126.5 46.3489 126.5 46.625H127.5ZM126.5 52.375C126.5 52.6511 126.724 52.875 127 52.875C127.276 52.875 127.5 52.6511 127.5 52.375H126.5ZM127.5 58.125C127.5 57.8489 127.276 57.625 127 57.625C126.724 57.625 126.5 57.8489 126.5 58.125H127.5ZM126.5 46.625V52.375H127.5V46.625H126.5ZM126.5 58.125V61H127.5V58.125H126.5Z" fill="#8B9CCC"/>
<circle opacity="0.8" cx="54" cy="80" r="5" fill="#06153D"/>
<circle opacity="0.8" cx="127" cy="131" r="5" fill="#06153D"/>
<circle opacity="0.8" cx="199" cy="80" r="5" fill="#06153D"/>
<circle opacity="0.8" cx="170" cy="46" r="5" fill="#06153D"/>
<circle opacity="0.8" cx="84" cy="46" r="5" fill="#06153D"/>
<circle opacity="0.8" cx="170" cy="113" r="5" fill="#06153D"/>
<circle opacity="0.8" cx="84" cy="113" r="5" fill="#06153D"/>
<rect x="333.5" y="65.5" width="91" height="28" rx="14" fill="white"/>
<path d="M344.5 78.1647C344.5 78.7775 344.621 79.3844 344.855 79.9506C345.09 80.5168 345.433 81.0312 345.867 81.4645C346.3 81.8979 346.815 82.2416 347.381 82.4762C347.947 82.7107 348.554 82.8314 349.167 82.8314C349.78 82.8314 350.386 82.7107 350.953 82.4762C351.519 82.2416 352.033 81.8979 352.466 81.4645C352.9 81.0312 353.244 80.5168 353.478 79.9506C353.713 79.3844 353.833 78.7775 353.833 78.1647C353.833 77.5519 353.713 76.945 353.478 76.3789C353.244 75.8127 352.9 75.2982 352.466 74.8649C352.033 74.4315 351.519 74.0878 350.953 73.8533C350.386 73.6188 349.78 73.498 349.167 73.498C348.554 73.498 347.947 73.6188 347.381 73.8533C346.815 74.0878 346.3 74.4315 345.867 74.8649C345.433 75.2982 345.09 75.8127 344.855 76.3789C344.621 76.945 344.5 77.5519 344.5 78.1647Z" stroke="#102252" stroke-width="1.33333" stroke-linecap="round" stroke-linejoin="round"/>
<path d="M356.5 85.498L352.5 81.498" stroke="#102252" stroke-width="1.33333" stroke-linecap="round" stroke-linejoin="round"/>
<path d="M371.312 74.0469V84H369.985L364.975 76.3232V84H363.655V74.0469H364.975L370.006 81.7441V74.0469H371.312ZM379.973 82.9268V84H374.702V82.9268H379.973ZM374.969 74.0469V84H373.649V74.0469H374.969ZM379.275 78.3262V79.3994H374.702V78.3262H379.275ZM379.904 74.0469V75.127H374.702V74.0469H379.904ZM387.301 74.0469H388.613V80.7803C388.613 81.5277 388.447 82.1497 388.114 82.6465C387.782 83.1432 387.34 83.5169 386.788 83.7676C386.241 84.0137 385.646 84.1367 385.004 84.1367C384.329 84.1367 383.719 84.0137 383.172 83.7676C382.63 83.5169 382.199 83.1432 381.88 82.6465C381.565 82.1497 381.408 81.5277 381.408 80.7803V74.0469H382.714V80.7803C382.714 81.2998 382.81 81.7282 383.001 82.0654C383.192 82.4027 383.459 82.6533 383.801 82.8174C384.147 82.9814 384.548 83.0635 385.004 83.0635C385.464 83.0635 385.865 82.9814 386.207 82.8174C386.553 82.6533 386.822 82.4027 387.014 82.0654C387.205 81.7282 387.301 81.2998 387.301 80.7803V74.0469ZM390.685 74.0469H393.979C394.727 74.0469 395.358 74.1608 395.873 74.3887C396.393 74.6165 396.787 74.9538 397.056 75.4004C397.329 75.8424 397.466 76.387 397.466 77.0342C397.466 77.4899 397.372 77.9069 397.186 78.2852C397.003 78.6589 396.739 78.9779 396.393 79.2422C396.051 79.502 395.641 79.6956 395.162 79.8232L394.793 79.9668H391.696L391.683 78.8936H394.021C394.494 78.8936 394.889 78.8115 395.203 78.6475C395.518 78.4788 395.755 78.2533 395.914 77.9707C396.074 77.6882 396.153 77.376 396.153 77.0342C396.153 76.6514 396.078 76.3164 395.928 76.0293C395.777 75.7422 395.54 75.5212 395.217 75.3662C394.898 75.2067 394.485 75.127 393.979 75.127H392.004V84H390.685V74.0469ZM396.502 84L394.082 79.4883L395.456 79.4814L397.91 83.918V84H396.502ZM402.996 74.9287L399.701 84H398.354L402.148 74.0469H403.017L402.996 74.9287ZM405.758 84L402.456 74.9287L402.436 74.0469H403.304L407.111 84H405.758ZM405.587 80.3154V81.3955H399.995V80.3154H405.587ZM414.48 82.9268V84H409.504V82.9268H414.48ZM409.764 74.0469V84H408.444V74.0469H409.764Z" fill="#102252"/>
<rect x="333.5" y="65.5" width="91" height="28" rx="14" stroke="#AEBDE6"/>
<circle opacity="0.8" cx="296" cy="80" r="5" fill="#DC244C"/>
<path d="M310 77.7799C310 77.5038 309.662 77.3085 309.423 77.4466L305.577 79.6667C305.338 79.8047 305.338 80.1953 305.577 80.3333L309.423 82.5534C309.662 82.6915 310 82.4962 310 82.2201V77.7799ZM308 80.5C308.276 80.5 308.5 80.2761 308.5 80C308.5 79.7239 308.276 79.5 308 79.5V80.5ZM314 79.5C313.724 79.5 313.5 79.7239 313.5 80C313.5 80.2761 313.724 80.5 314 80.5V79.5ZM320 80.5C320.276 80.5 320.5 80.2761 320.5 80C320.5 79.7239 320.276 79.5 320 79.5V80.5ZM326 79.5C325.724 79.5 325.5 79.7239 325.5 80C325.5 80.2761 325.724 80.5 326 80.5V79.5ZM314 80.5H320V79.5H314V80.5ZM326 80.5H329V79.5H326V80.5Z" fill="#8B9CCC"/>
<circle opacity="0.8" cx="336" cy="46" r="5" fill="#06153D"/>
<circle opacity="0.8" cx="422" cy="46" r="5" fill="#06153D"/>
<circle opacity="0.8" cx="422" cy="113" r="5" fill="#DC244C"/>
<path d="M408 115.22C408 115.496 408.338 115.691 408.577 115.553L412.423 113.333C412.662 113.195 412.662 112.805 412.423 112.667L408.577 110.447C408.338 110.309 408 110.504 408 110.78V115.22ZM379.5 98C379.5 97.7239 379.276 97.5 379 97.5C378.724 97.5 378.5 97.7239 378.5 98H379.5ZM378.795 101.024C378.849 101.295 379.112 101.472 379.383 101.418C379.653 101.364 379.83 101.101 379.776 100.83L378.795 101.024ZM381.942 106.056C381.788 105.827 381.478 105.765 381.248 105.919C381.019 106.072 380.957 106.383 381.111 106.612L381.942 106.056ZM385.388 110.889C385.617 111.043 385.928 110.981 386.081 110.752C386.235 110.522 386.173 110.212 385.944 110.058L385.388 110.889ZM391.17 112.224C390.899 112.17 390.636 112.347 390.582 112.617C390.528 112.888 390.705 113.151 390.976 113.205L391.17 112.224ZM396.375 113.5C396.651 113.5 396.875 113.276 396.875 113C396.875 112.724 396.651 112.5 396.375 112.5V113.5ZM401.125 112.5C400.849 112.5 400.625 112.724 400.625 113C400.625 113.276 400.849 113.5 401.125 113.5V112.5ZM405.875 113.5C406.151 113.5 406.375 113.276 406.375 113C406.375 112.724 406.151 112.5 405.875 112.5V113.5ZM410.625 112.5C410.349 112.5 410.125 112.724 410.125 113C410.125 113.276 410.349 113.5 410.625 113.5V112.5ZM378.5 98C378.5 99.0345 378.601 100.046 378.795 101.024L379.776 100.83C379.595 99.9154 379.5 98.969 379.5 98H378.5ZM381.111 106.612C382.243 108.302 383.698 109.757 385.388 110.889L385.944 110.058C384.362 108.999 383.001 107.638 381.942 106.056L381.111 106.612ZM390.976 113.205C391.954 113.399 392.965 113.5 394 113.5V112.5C393.031 112.5 392.085 112.405 391.17 112.224L390.976 113.205ZM394 113.5H396.375V112.5H394V113.5ZM401.125 113.5H405.875V112.5H401.125V113.5Z" fill="#8B9CCC"/>
<circle opacity="0.8" cx="336" cy="113" r="5" fill="#06153D"/>
<circle opacity="0.8" cx="379" cy="29" r="5" fill="#DC244C"/>
<path d="M381.22 43C381.496 43 381.691 42.6618 381.553 42.4226L379.333 38.5774C379.195 38.3382 378.805 38.3382 378.667 38.5774L376.447 42.4226C376.309 42.6618 376.504 43 376.78 43H381.22ZM378.5 40.875C378.5 41.1511 378.724 41.375 379 41.375C379.276 41.375 379.5 41.1511 379.5 40.875H378.5ZM379.5 46.625C379.5 46.3489 379.276 46.125 379 46.125C378.724 46.125 378.5 46.3489 378.5 46.625H379.5ZM378.5 52.375C378.5 52.6511 378.724 52.875 379 52.875C379.276 52.875 379.5 52.6511 379.5 52.375H378.5ZM379.5 58.125C379.5 57.8489 379.276 57.625 379 57.625C378.724 57.625 378.5 57.8489 378.5 58.125H379.5ZM378.5 46.625V52.375H379.5V46.625H378.5ZM378.5 58.125V61H379.5V58.125H378.5Z" fill="#8B9CCC"/>
<circle opacity="0.8" cx="462" cy="80" r="5" fill="#06153D"/>
<circle opacity="0.8" cx="379" cy="131" r="5" fill="#06153D"/>
<rect x="252" width="1" height="160" fill="#DCE4FA"/>
<rect x="0.5" y="0.5" width="503" height="159" stroke="#DCE4FA"/>
</svg>
